<?xml version='1.0' encoding='UTF-8' standalone='no'?>
<!-- Created with Fritzing (http://www.fritzing.org/) -->
<svg xmlns="http://www.w3.org/2000/svg" width="8.34102in" x="0in" version="1.2" y="0in"  height="5.0585in" viewBox="0 0 600.553 364.212" baseProfile="tiny" xmlns:svg="http://www.w3.org/2000/svg">
 <g  id="watermark">
  <g >
   <path fill="#8C8C8C"  d="M492.736,361.884L490.811,356.32L490.776,356.32c0.017,0.214,0.032,0.427,0.044,0.64c0.012,0.183,0.021,0.375,0.028,0.574c0.007,0.203,0.011,0.385,0.011,0.551l0,3.8L490.111,361.885L490.111,355.529l1.199,0l1.791,5.181l0.025,0l1.8,-5.181L496.126,355.529l0,6.354L495.317,361.883l0,-3.854c0,-0.15,0.003,-0.324,0.009,-0.518s0.013,-0.38,0.021,-0.557c0.012,-0.207,0.021,-0.416,0.029,-0.625L495.344,356.329L493.4,361.884L492.736,361.884z"/>
   <path fill="#8C8C8C"  d="M500.436,361.884l-0.16,-0.661l-0.035,0c-0.095,0.131,-0.19,0.243,-0.286,0.338c-0.095,0.095,-0.2,0.172,-0.313,0.231c-0.113,0.062,-0.239,0.106,-0.378,0.136c-0.141,0.028,-0.3,0.042,-0.482,0.042c-0.2,0,-0.384,-0.026,-0.552,-0.084c-0.168,-0.057,-0.314,-0.144,-0.438,-0.261c-0.122,-0.116,-0.219,-0.265,-0.288,-0.443S497.4,360.794,497.4,360.549c0,-0.475,0.167,-0.841,0.501,-1.095c0.335,-0.256,0.845,-0.394,1.528,-0.418l0.799,-0.029l0,-0.301c0,-0.193,-0.021,-0.356,-0.063,-0.486s-0.103,-0.234,-0.183,-0.314s-0.178,-0.138,-0.295,-0.172c-0.117,-0.035,-0.251,-0.052,-0.402,-0.052c-0.241,0,-0.464,0.034,-0.671,0.104c-0.207,0.068,-0.407,0.152,-0.597,0.25L497.738,357.443c0.214,-0.117,0.453,-0.217,0.717,-0.298c0.264,-0.079,0.54,-0.12,0.83,-0.12c0.296,0,0.551,0.029,0.768,0.09c0.216,0.059,0.395,0.151,0.534,0.28c0.141,0.13,0.247,0.294,0.316,0.494c0.07,0.199,0.104,0.44,0.104,0.726l0,3.269L500.436,361.884L500.436,361.884zM498.985,361.333c0.178,0,0.341,-0.028,0.491,-0.084c0.149,-0.055,0.282,-0.138,0.391,-0.249c0.11,-0.111,0.196,-0.252,0.258,-0.422c0.063,-0.17,0.094,-0.369,0.094,-0.599l0,-0.43l-0.621,0.03c-0.262,0.012,-0.48,0.041,-0.656,0.086c-0.175,0.047,-0.317,0.113,-0.423,0.193c-0.105,0.084,-0.183,0.185,-0.229,0.301c-0.046,0.117,-0.068,0.25,-0.068,0.398c0,0.268,0.069,0.462,0.211,0.586C498.572,361.27,498.756,361.333,498.985,361.333z"/>
   <path fill="#8C8C8C"  d="M505.418,361.245l-0.034,0c-0.063,0.099,-0.139,0.191,-0.224,0.281c-0.085,0.088,-0.184,0.165,-0.296,0.231c-0.111,0.066,-0.237,0.118,-0.376,0.156c-0.139,0.037,-0.295,0.056,-0.47,0.056c-0.271,0,-0.517,-0.051,-0.738,-0.154c-0.223,-0.105,-0.416,-0.262,-0.575,-0.469s-0.282,-0.464,-0.369,-0.771c-0.087,-0.309,-0.13,-0.664,-0.13,-1.069c0,-0.408,0.043,-0.767,0.13,-1.076c0.086,-0.31,0.209,-0.567,0.369,-0.774c0.159,-0.209,0.352,-0.367,0.575,-0.473c0.222,-0.105,0.469,-0.158,0.738,-0.158c0.171,0,0.327,0.02,0.466,0.057s0.264,0.088,0.376,0.152c0.112,0.063,0.211,0.137,0.297,0.221s0.163,0.172,0.227,0.266l0.052,0c-0.009,-0.1,-0.018,-0.191,-0.026,-0.283c-0.006,-0.074,-0.012,-0.152,-0.018,-0.232c-0.005,-0.078,-0.009,-0.143,-0.009,-0.188L505.383,355.121l0.792,0l0,6.763l-0.641,0L505.418,361.245zM504.17,361.316c0.221,0,0.407,-0.033,0.56,-0.102c0.151,-0.065,0.274,-0.168,0.37,-0.304c0.094,-0.136,0.163,-0.308,0.209,-0.512c0.044,-0.204,0.069,-0.442,0.076,-0.716l0,-0.177c0,-0.292,-0.02,-0.552,-0.059,-0.78c-0.04,-0.229,-0.105,-0.418,-0.2,-0.574c-0.094,-0.154,-0.219,-0.271,-0.376,-0.351c-0.156,-0.08,-0.352,-0.119,-0.586,-0.119c-0.391,0,-0.679,0.157,-0.861,0.474c-0.185,0.315,-0.277,0.771,-0.277,1.359c0,0.605,0.092,1.058,0.277,1.354C503.483,361.166,503.773,361.316,504.17,361.316z"/>
   <path fill="#8C8C8C"  d="M509.572,361.97c-0.318,0,-0.609,-0.053,-0.874,-0.16c-0.263,-0.106,-0.49,-0.264,-0.68,-0.469c-0.19,-0.207,-0.338,-0.461,-0.442,-0.766c-0.104,-0.306,-0.156,-0.651,-0.156,-1.045s0.049,-0.744,0.144,-1.055c0.096,-0.311,0.229,-0.574,0.405,-0.789c0.174,-0.216,0.382,-0.381,0.623,-0.492c0.241,-0.113,0.51,-0.17,0.802,-0.17c0.287,0,0.545,0.051,0.772,0.153c0.229,0.104,0.423,0.248,0.583,0.435c0.159,0.188,0.282,0.412,0.367,0.674c0.087,0.263,0.13,0.554,0.13,0.873l0,0.49l-3.008,0c0.015,0.559,0.133,0.971,0.354,1.234c0.222,0.263,0.551,0.396,0.987,0.396c0.149,0,0.285,-0.008,0.411,-0.021s0.248,-0.035,0.365,-0.063c0.118,-0.026,0.23,-0.063,0.342,-0.104s0.222,-0.089,0.334,-0.142l0,0.704c-0.116,0.055,-0.229,0.104,-0.341,0.144c-0.112,0.041,-0.226,0.074,-0.343,0.102c-0.117,0.024,-0.239,0.045,-0.365,0.056S509.721,361.97,509.572,361.97zM509.377,357.682c-0.331,0,-0.592,0.112,-0.783,0.339c-0.193,0.227,-0.307,0.555,-0.338,0.985l2.14,0c0,-0.196,-0.021,-0.378,-0.06,-0.541c-0.039,-0.164,-0.1,-0.304,-0.183,-0.419s-0.187,-0.205,-0.315,-0.27C509.71,357.712,509.557,357.682,509.377,357.682z"/>
   <path fill="#8C8C8C"  d="M518.386,361.884l-0.729,-2.678c-0.012,-0.053,-0.026,-0.111,-0.044,-0.176c-0.017,-0.065,-0.034,-0.136,-0.051,-0.207c-0.019,-0.072,-0.036,-0.146,-0.055,-0.223c-0.02,-0.074,-0.037,-0.148,-0.055,-0.222c-0.041,-0.169,-0.083,-0.341,-0.126,-0.521l-0.024,0c-0.041,0.182,-0.08,0.356,-0.117,0.524c-0.032,0.146,-0.066,0.294,-0.104,0.448c-0.037,0.152,-0.069,0.283,-0.103,0.391l-0.75,2.66l-0.917,0l-1.221,-4.771l0.83,0l0.57,2.539c0.029,0.129,0.059,0.27,0.086,0.423c0.028,0.151,0.057,0.303,0.082,0.452c0.026,0.148,0.05,0.288,0.07,0.421c0.02,0.132,0.037,0.238,0.049,0.322l0.025,0c0.015,-0.074,0.034,-0.177,0.059,-0.302c0.025,-0.126,0.052,-0.26,0.083,-0.399c0.031,-0.141,0.063,-0.28,0.093,-0.417c0.032,-0.139,0.063,-0.254,0.091,-0.351l0.778,-2.69l0.853,0l0.748,2.69c0.025,0.098,0.056,0.215,0.089,0.348c0.033,0.135,0.065,0.27,0.098,0.407c0.032,0.139,0.061,0.271,0.087,0.397c0.025,0.127,0.045,0.231,0.056,0.315l0.026,0c0.01,-0.074,0.022,-0.177,0.042,-0.302c0.02,-0.126,0.042,-0.265,0.067,-0.415c0.025,-0.149,0.054,-0.306,0.084,-0.464c0.03,-0.157,0.062,-0.306,0.094,-0.44L519.746,357.111l0.809,0l-1.234,4.771L518.386,361.882L518.386,361.884z"/>
   <path fill="#8C8C8C"  d="M521.341,355.821c0,-0.175,0.045,-0.3,0.133,-0.379c0.088,-0.078,0.197,-0.117,0.328,-0.117c0.063,0,0.123,0.011,0.181,0.028c0.056,0.019,0.104,0.049,0.147,0.089c0.042,0.041,0.075,0.092,0.101,0.154c0.023,0.063,0.037,0.137,0.037,0.224c0,0.168,-0.045,0.293,-0.138,0.376c-0.092,0.083,-0.2,0.123,-0.327,0.123c-0.131,0,-0.24,-0.04,-0.328,-0.12C521.387,356.118,521.341,355.991,521.341,355.821zM522.193,361.884l-0.791,0L521.402,357.111l0.791,0L522.193,361.884z"/>
   <path fill="#8C8C8C"  d="M525.149,361.323c0.052,0,0.111,-0.003,0.176,-0.01c0.066,-0.006,0.128,-0.013,0.189,-0.021c0.061,-0.009,0.116,-0.019,0.167,-0.031c0.051,-0.011,0.089,-0.021,0.115,-0.028l0,0.6c-0.037,0.017,-0.085,0.035,-0.144,0.052c-0.059,0.018,-0.122,0.033,-0.191,0.046c-0.068,0.015,-0.142,0.022,-0.217,0.03s-0.148,0.011,-0.221,0.011c-0.18,0,-0.347,-0.021,-0.5,-0.068c-0.153,-0.048,-0.286,-0.126,-0.397,-0.239c-0.111,-0.112,-0.198,-0.267,-0.263,-0.458c-0.063,-0.192,-0.095,-0.437,-0.095,-0.729L523.768,357.707l-0.674,0L523.094,357.355l0.673,-0.339l0.339,-0.999l0.456,0l0,1.096l1.199,0l0,0.596l-1.199,0l0,2.769c0,0.281,0.045,0.492,0.137,0.636C524.791,361.252,524.94,361.323,525.149,361.323z"/>
   <path fill="#8C8C8C"  d="M529.704,361.884l0,-3.073c0,-0.377,-0.076,-0.659,-0.228,-0.848c-0.152,-0.188,-0.391,-0.282,-0.715,-0.282c-0.234,0,-0.433,0.037,-0.592,0.111c-0.158,0.076,-0.286,0.188,-0.384,0.336c-0.097,0.148,-0.166,0.328,-0.208,0.544c-0.042,0.214,-0.063,0.461,-0.063,0.739l0,2.473l-0.791,0L526.723,355.121l0.791,0l0,2.008l-0.034,0.626l0.044,0c0.072,-0.124,0.158,-0.232,0.258,-0.323s0.209,-0.167,0.328,-0.229c0.118,-0.061,0.245,-0.104,0.378,-0.135c0.133,-0.027,0.27,-0.043,0.408,-0.043c0.531,0,0.93,0.139,1.198,0.416c0.268,0.275,0.401,0.719,0.401,1.326l0,3.117L529.704,361.884L529.704,361.884z"/>
  </g>
  <g >
   <path fill="#8C8C8C"  d="M551.464,361.868l-1.324,0L550.14,355.514l3.642,0l0,1.104l-2.316,0l0,1.639l2.156,0l0,1.1l-2.156,0L551.464,361.868L551.464,361.868z"/>
   <path fill="#8C8C8C"  d="M557.497,356.918c0.035,0,0.074,0.002,0.116,0.002c0.042,0.002,0.083,0.006,0.12,0.01c0.041,0.005,0.076,0.009,0.11,0.014c0.031,0.004,0.059,0.01,0.075,0.016l0,1.244c-0.022,-0.008,-0.056,-0.012,-0.095,-0.018c-0.04,-0.007,-0.083,-0.012,-0.128,-0.018c-0.045,-0.004,-0.09,-0.006,-0.133,-0.008c-0.044,-0.002,-0.08,-0.002,-0.108,-0.002c-0.171,0,-0.328,0.021,-0.472,0.064c-0.146,0.043,-0.269,0.113,-0.37,0.211s-0.183,0.225,-0.239,0.383c-0.057,0.157,-0.084,0.352,-0.084,0.581l0,2.474l-1.326,0L554.963,357.009l1.005,0l0.194,0.73l0.066,0c0.068,-0.125,0.145,-0.238,0.226,-0.34c0.081,-0.103,0.172,-0.189,0.272,-0.259c0.1,-0.071,0.212,-0.126,0.338,-0.165C557.19,356.938,557.336,356.918,557.497,356.918z"/>
   <path fill="#8C8C8C"  d="M558.815,355.753c0,-0.125,0.018,-0.228,0.056,-0.311c0.038,-0.084,0.089,-0.15,0.154,-0.2c0.065,-0.051,0.142,-0.086,0.229,-0.106c0.088,-0.02,0.184,-0.03,0.281,-0.03c0.099,0,0.191,0.01,0.277,0.03c0.088,0.02,0.164,0.055,0.229,0.106c0.066,0.05,0.117,0.116,0.156,0.2c0.04,0.083,0.059,0.186,0.059,0.311c0,0.122,-0.019,0.225,-0.059,0.309c-0.039,0.084,-0.09,0.151,-0.156,0.203c-0.063,0.05,-0.142,0.086,-0.229,0.108c-0.086,0.021,-0.18,0.032,-0.277,0.032c-0.099,0,-0.191,-0.012,-0.281,-0.032c-0.088,-0.021,-0.164,-0.059,-0.229,-0.108c-0.065,-0.051,-0.116,-0.119,-0.154,-0.203C558.834,355.978,558.815,355.875,558.815,355.753zM560.197,361.868l-1.325,0L558.872,357.009l1.325,0L560.197,361.868z"/>
   <path fill="#8C8C8C"  d="M563.606,360.899c0.13,0,0.254,-0.016,0.371,-0.045c0.117,-0.027,0.235,-0.064,0.357,-0.107l0,0.986c-0.124,0.063,-0.278,0.116,-0.463,0.157c-0.184,0.042,-0.385,0.063,-0.603,0.063c-0.211,0,-0.408,-0.024,-0.59,-0.073c-0.185,-0.05,-0.342,-0.137,-0.476,-0.259c-0.133,-0.123,-0.237,-0.288,-0.313,-0.495c-0.077,-0.208,-0.114,-0.468,-0.114,-0.781L561.775,358.004l-0.636,0L561.139,357.443l0.729,-0.443l0.383,-1.024l0.848,0l0,1.034l1.184,0l0,0.995l-1.184,0l0,2.343c0,0.188,0.048,0.327,0.141,0.417C563.333,360.854,563.455,360.899,563.606,360.899z"/>
   <path fill="#8C8C8C"  d="M568.479,361.868L564.906,361.868l0,-0.781l1.985,-3.064l-1.853,0L565.038,357.009l3.355,0l0,0.859l-1.92,2.985l2.004,0L568.479,361.868L568.479,361.868z"/>
   <path fill="#8C8C8C"  d="M569.418,355.753c0,-0.125,0.02,-0.228,0.057,-0.311c0.038,-0.084,0.09,-0.15,0.153,-0.2c0.065,-0.051,0.144,-0.086,0.23,-0.106s0.182,-0.03,0.28,-0.03c0.098,0,0.19,0.01,0.277,0.03c0.088,0.02,0.164,0.055,0.229,0.106c0.064,0.05,0.117,0.116,0.156,0.2c0.038,0.083,0.059,0.186,0.059,0.311c0,0.122,-0.021,0.225,-0.059,0.309c-0.039,0.084,-0.092,0.151,-0.156,0.203c-0.064,0.05,-0.143,0.086,-0.229,0.108c-0.086,0.021,-0.18,0.032,-0.277,0.032c-0.099,0,-0.192,-0.012,-0.28,-0.032c-0.088,-0.021,-0.165,-0.059,-0.23,-0.108c-0.063,-0.051,-0.115,-0.119,-0.153,-0.203C569.437,355.978,569.418,355.875,569.418,355.753zM570.8,361.868L569.476,361.868L569.476,357.009l1.324,0L570.8,361.868z"/>
   <path fill="#8C8C8C"  d="M576.45,361.868L575.126,361.868l0,-2.839c0,-0.351,-0.053,-0.613,-0.158,-0.787c-0.105,-0.176,-0.274,-0.265,-0.508,-0.265c-0.173,0,-0.317,0.035,-0.434,0.104c-0.116,0.07,-0.209,0.173,-0.276,0.31c-0.066,0.136,-0.115,0.304,-0.146,0.504c-0.029,0.2,-0.043,0.429,-0.043,0.687l0,2.286L572.236,361.868L572.236,357.009l1.012,0l0.181,0.621l0.073,0c0.069,-0.124,0.153,-0.23,0.253,-0.321c0.102,-0.089,0.21,-0.163,0.328,-0.221s0.245,-0.103,0.378,-0.128c0.136,-0.028,0.271,-0.043,0.409,-0.043c0.237,0,0.454,0.033,0.647,0.104c0.194,0.067,0.36,0.174,0.5,0.318c0.141,0.146,0.247,0.328,0.321,0.555c0.075,0.225,0.113,0.492,0.113,0.807l0,3.168L576.45,361.868L576.45,361.868z"/>
   <path fill="#8C8C8C"  d="M581.88,357.018l0,0.722l-0.708,0.221c0.059,0.1,0.1,0.201,0.122,0.308c0.021,0.106,0.033,0.22,0.033,0.343c0,0.246,-0.039,0.471,-0.116,0.676c-0.078,0.203,-0.193,0.379,-0.349,0.522c-0.152,0.146,-0.346,0.258,-0.578,0.337c-0.23,0.08,-0.5,0.119,-0.808,0.119c-0.067,0,-0.141,-0.003,-0.218,-0.012c-0.078,-0.007,-0.137,-0.015,-0.175,-0.021c-0.057,0.049,-0.104,0.101,-0.137,0.152c-0.033,0.054,-0.049,0.117,-0.049,0.193c0,0.061,0.018,0.108,0.056,0.146s0.087,0.065,0.147,0.087c0.06,0.022,0.133,0.036,0.214,0.044s0.165,0.012,0.251,0.012l0.756,0c0.236,0,0.446,0.025,0.631,0.081c0.186,0.055,0.342,0.135,0.472,0.246c0.129,0.109,0.229,0.249,0.299,0.419c0.069,0.169,0.104,0.372,0.104,0.605c0,0.275,-0.054,0.523,-0.164,0.745c-0.109,0.224,-0.274,0.41,-0.494,0.565c-0.219,0.154,-0.488,0.273,-0.813,0.355c-0.324,0.082,-0.699,0.123,-1.126,0.123c-0.329,0,-0.618,-0.031,-0.864,-0.094c-0.247,-0.063,-0.451,-0.15,-0.617,-0.27c-0.165,-0.116,-0.288,-0.258,-0.371,-0.424c-0.084,-0.164,-0.125,-0.353,-0.125,-0.561c0,-0.177,0.031,-0.33,0.093,-0.46c0.061,-0.131,0.143,-0.243,0.243,-0.336c0.102,-0.093,0.218,-0.168,0.347,-0.227c0.129,-0.058,0.262,-0.103,0.396,-0.134c-0.061,-0.026,-0.12,-0.063,-0.181,-0.109c-0.059,-0.047,-0.113,-0.1,-0.161,-0.159c-0.047,-0.063,-0.086,-0.129,-0.116,-0.203c-0.031,-0.072,-0.047,-0.15,-0.047,-0.23c0,-0.093,0.015,-0.178,0.04,-0.252c0.029,-0.076,0.068,-0.146,0.12,-0.212c0.052,-0.064,0.117,-0.126,0.196,-0.184c0.078,-0.06,0.166,-0.117,0.264,-0.18c-0.254,-0.11,-0.456,-0.287,-0.604,-0.53c-0.15,-0.244,-0.225,-0.529,-0.225,-0.859c0,-0.26,0.04,-0.494,0.121,-0.699c0.081,-0.207,0.2,-0.381,0.356,-0.523c0.155,-0.144,0.35,-0.252,0.582,-0.328c0.231,-0.076,0.499,-0.113,0.801,-0.113c0.057,0,0.122,0.004,0.194,0.012s0.145,0.018,0.216,0.025c0.07,0.01,0.137,0.021,0.196,0.033c0.061,0.01,0.109,0.021,0.146,0.029L581.88,357.018L581.88,357.018zM578.403,362.555c0,0.073,0.017,0.145,0.047,0.211c0.03,0.068,0.08,0.129,0.15,0.182c0.068,0.052,0.16,0.094,0.272,0.124c0.113,0.03,0.252,0.046,0.417,0.046c0.452,0,0.792,-0.063,1.021,-0.191c0.229,-0.127,0.343,-0.298,0.343,-0.514c0,-0.183,-0.07,-0.304,-0.213,-0.364c-0.143,-0.06,-0.361,-0.091,-0.66,-0.091l-0.613,0c-0.077,0,-0.162,0.009,-0.252,0.027c-0.09,0.018,-0.172,0.052,-0.248,0.099c-0.075,0.046,-0.139,0.108,-0.188,0.184S578.403,362.44,578.403,362.555zM578.882,358.6c0,0.263,0.049,0.468,0.147,0.612c0.098,0.146,0.248,0.217,0.447,0.217c0.209,0,0.358,-0.07,0.451,-0.217c0.094,-0.145,0.14,-0.35,0.14,-0.612c0,-0.261,-0.046,-0.468,-0.137,-0.622c-0.092,-0.152,-0.243,-0.229,-0.454,-0.229C579.079,357.748,578.882,358.031,578.882,358.6z"/>
   <path fill="#8C8C8C"  d="M582.63,361.247c0,-0.136,0.02,-0.251,0.059,-0.346c0.04,-0.095,0.094,-0.172,0.163,-0.229c0.069,-0.058,0.149,-0.101,0.244,-0.126c0.092,-0.026,0.191,-0.039,0.299,-0.039c0.102,0,0.198,0.013,0.289,0.039c0.092,0.025,0.172,0.068,0.242,0.126c0.068,0.057,0.123,0.134,0.163,0.229c0.041,0.095,0.062,0.21,0.062,0.346c0,0.13,-0.021,0.242,-0.062,0.335c-0.04,0.093,-0.095,0.17,-0.163,0.229c-0.07,0.062,-0.15,0.104,-0.242,0.133c-0.091,0.027,-0.188,0.042,-0.289,0.042c-0.106,0,-0.207,-0.015,-0.299,-0.042c-0.095,-0.027,-0.175,-0.071,-0.244,-0.133c-0.069,-0.061,-0.123,-0.138,-0.163,-0.229C582.648,361.489,582.63,361.377,582.63,361.247z"/>
   <path fill="#8C8C8C"  d="M589.589,359.429c0,0.406,-0.052,0.767,-0.153,1.079c-0.104,0.313,-0.251,0.576,-0.443,0.79c-0.192,0.215,-0.428,0.378,-0.704,0.489c-0.277,0.111,-0.587,0.167,-0.933,0.167c-0.321,0,-0.617,-0.056,-0.886,-0.167c-0.271,-0.112,-0.503,-0.274,-0.698,-0.489c-0.195,-0.214,-0.35,-0.479,-0.458,-0.79c-0.11,-0.313,-0.165,-0.673,-0.165,-1.079c0,-0.402,0.051,-0.76,0.154,-1.072c0.103,-0.314,0.25,-0.576,0.442,-0.789C585.937,357.354,586.171,357.193,586.446,357.084s0.587,-0.164,0.937,-0.164c0.319,0,0.615,0.055,0.886,0.164c0.27,0.111,0.502,0.271,0.695,0.484c0.197,0.213,0.351,0.477,0.459,0.789C589.533,358.669,589.589,359.027,589.589,359.429zM586.503,359.429c0,0.484,0.068,0.851,0.205,1.093c0.137,0.246,0.357,0.368,0.664,0.368c0.306,0,0.524,-0.123,0.66,-0.37c0.137,-0.245,0.205,-0.608,0.205,-1.091s-0.068,-0.846,-0.205,-1.084c-0.136,-0.238,-0.358,-0.357,-0.668,-0.357c-0.305,0,-0.523,0.119,-0.659,0.357C586.57,358.584,586.503,358.947,586.503,359.429z"/>
   <path fill="#8C8C8C"  d="M593.309,356.918c0.035,0,0.073,0.002,0.115,0.002c0.042,0.002,0.083,0.006,0.12,0.01c0.04,0.005,0.076,0.009,0.109,0.014c0.033,0.004,0.059,0.01,0.076,0.016l0,1.244c-0.023,-0.008,-0.055,-0.012,-0.095,-0.018c-0.041,-0.007,-0.083,-0.012,-0.13,-0.018c-0.045,-0.004,-0.089,-0.006,-0.132,-0.008c-0.045,-0.002,-0.08,-0.002,-0.108,-0.002c-0.171,0,-0.328,0.021,-0.473,0.064c-0.144,0.043,-0.267,0.113,-0.37,0.211c-0.102,0.098,-0.182,0.225,-0.237,0.383c-0.058,0.157,-0.084,0.352,-0.084,0.581l0,2.474l-1.326,0L590.774,357.009l1.004,0l0.195,0.73l0.065,0c0.068,-0.125,0.146,-0.238,0.226,-0.34c0.081,-0.103,0.172,-0.189,0.271,-0.259c0.101,-0.071,0.213,-0.126,0.339,-0.165C593.003,356.938,593.147,356.918,593.309,356.918z"/>
   <path fill="#8C8C8C"  d="M598.617,357.018l0,0.722l-0.708,0.221c0.058,0.1,0.099,0.201,0.121,0.308s0.034,0.22,0.034,0.343c0,0.246,-0.039,0.471,-0.116,0.676c-0.079,0.203,-0.194,0.379,-0.349,0.522c-0.153,0.146,-0.348,0.258,-0.578,0.337c-0.232,0.08,-0.501,0.119,-0.809,0.119c-0.067,0,-0.141,-0.003,-0.219,-0.012c-0.078,-0.007,-0.135,-0.015,-0.173,-0.021c-0.058,0.049,-0.104,0.101,-0.137,0.152c-0.034,0.054,-0.05,0.117,-0.05,0.193c0,0.061,0.019,0.108,0.057,0.146c0.037,0.037,0.086,0.065,0.146,0.087c0.062,0.021,0.133,0.036,0.215,0.044c0.08,0.008,0.164,0.012,0.251,0.012l0.756,0c0.234,0,0.445,0.025,0.63,0.081c0.186,0.055,0.343,0.135,0.472,0.246c0.129,0.109,0.229,0.249,0.298,0.419c0.07,0.169,0.104,0.372,0.104,0.605c0,0.275,-0.054,0.523,-0.165,0.745c-0.109,0.224,-0.275,0.41,-0.493,0.565c-0.219,0.154,-0.489,0.273,-0.815,0.355c-0.323,0.082,-0.698,0.123,-1.125,0.123c-0.329,0,-0.617,-0.031,-0.864,-0.094c-0.246,-0.063,-0.451,-0.15,-0.617,-0.27c-0.164,-0.116,-0.287,-0.258,-0.371,-0.424c-0.083,-0.164,-0.124,-0.353,-0.124,-0.561c0,-0.177,0.03,-0.33,0.091,-0.46c0.063,-0.131,0.144,-0.243,0.244,-0.336c0.103,-0.093,0.217,-0.168,0.346,-0.227c0.129,-0.058,0.263,-0.103,0.398,-0.134c-0.062,-0.026,-0.121,-0.063,-0.182,-0.109c-0.06,-0.047,-0.113,-0.1,-0.16,-0.159c-0.047,-0.063,-0.087,-0.129,-0.117,-0.203c-0.03,-0.073,-0.045,-0.151,-0.045,-0.231c0,-0.093,0.014,-0.178,0.04,-0.252c0.027,-0.076,0.067,-0.146,0.12,-0.212c0.051,-0.064,0.117,-0.126,0.194,-0.184c0.078,-0.06,0.166,-0.117,0.266,-0.18c-0.255,-0.109,-0.456,-0.287,-0.606,-0.529c-0.148,-0.244,-0.223,-0.531,-0.223,-0.861c0,-0.26,0.039,-0.493,0.121,-0.698c0.081,-0.207,0.199,-0.382,0.354,-0.524c0.156,-0.143,0.351,-0.252,0.583,-0.328c0.231,-0.074,0.499,-0.111,0.8,-0.111c0.059,0,0.123,0.003,0.195,0.011s0.146,0.017,0.215,0.026c0.072,0.009,0.138,0.021,0.198,0.031c0.062,0.012,0.108,0.021,0.145,0.03L598.617,357.017L598.617,357.018zM595.141,362.555c0,0.073,0.017,0.145,0.046,0.211c0.031,0.068,0.081,0.129,0.149,0.182c0.07,0.052,0.161,0.094,0.273,0.124c0.114,0.03,0.252,0.046,0.418,0.046c0.451,0,0.792,-0.063,1.021,-0.191c0.229,-0.127,0.343,-0.298,0.343,-0.514c0,-0.183,-0.071,-0.304,-0.214,-0.364s-0.361,-0.091,-0.66,-0.091l-0.612,0c-0.079,0,-0.163,0.009,-0.252,0.027c-0.09,0.019,-0.173,0.052,-0.248,0.099c-0.076,0.046,-0.139,0.108,-0.188,0.184C595.167,362.342,595.141,362.44,595.141,362.555zM595.618,358.6c0,0.263,0.049,0.468,0.148,0.612c0.099,0.146,0.248,0.217,0.447,0.217c0.209,0,0.358,-0.07,0.451,-0.217c0.094,-0.145,0.141,-0.35,0.141,-0.612c0,-0.261,-0.046,-0.468,-0.138,-0.622c-0.092,-0.152,-0.243,-0.229,-0.454,-0.229C595.816,357.748,595.618,358.031,595.618,358.6z"/>
  </g>
  <g >
   <path fill="#8C8C8C"  d="M544.211,354.138l-8.146,0c-0.532,0,-0.965,0.432,-0.965,0.964l0,8.146c0,0.531,0.433,0.964,0.965,0.964l5.55,0l3.557,-3.558L545.172,355.102C545.175,354.569,544.743,354.138,544.211,354.138zM542.534,357.867l-1.075,0l0,0.401l1.075,0l0,1.601l-2.196,0l0,2.058l-2.572,0l0,-4.67l0.988,-0.99l3.779,0l0,1.603l0.001,0L542.534,357.867z"/>
  </g>
 </g>
 <g partID="12090">
  <g transform="translate(85.1854,0)">
   <g  id="schematic">
    <rect width="2.39977" x="11.5549" y="15.739" fill="#000000"  height="10.836" stroke="none" id="connector0pin" stroke-width="0"/>
    <rect width="0" x="12.7548" y="25.775"  height="0.8" id="connector0terminal"/>
    <path fill="none"  stroke="#000000" stroke-width="2.39977" d="M0,15.739l25.5096,0"/>
    <text x="1.49986" y="10.75" fill="#000000" font-family="DroidSans"  id="label" font-size="8.99915">3.299V</text>
   </g>
  </g>
 </g>
 <g partID="63920">
  <g transform="translate(86.8198,40.4799)">
   <g  id="schematic" transform="matrix(0.999986, 0, 0, 0.999977, -3.85018, -0.601428)">
    <rect width="1.5152" x="14.2376" y="1.4592"  height="7.8264" id="connector1pin"/>
    <rect width="0.6936" x="14.6208" y="0.912"  height="0.5472" id="connector1terminal"/>
    <rect width="1.5144" x="14.2408" y="42.0328"  height="7.8264" id="connector0pin"/>
    <rect width="0.6936" x="14.624" y="49.8024"  height="0.5496" id="connector0terminal"/>
    <g  id="g10">
     <polyline points="14.9832,1.4928,14.9832,15.9384,17.7832,17.428,11.9832,20.656,17.7832,23.8832,11.9832,27.1112,17.7832,30.3384,11.9832,33.5664,14.9832,35.304,14.9832,49.6264" fill="#ffffff"  stroke="#000000" style="stroke-linecap:round" id="polyline12" stroke-width="1.78272"/>
     <polyline points="4.7416,20.0824,24.6424,31.008,24.6424,41.3488" fill="none"  stroke="#000000" style="stroke-linecap:round" id="polyline16" stroke-width="1.78272"/>
    </g>
   </g>
  </g>
 </g>
 <g partID="63980">
  <g transform="translate(92.9725,137.395)">
   <g  id="schematic">
    <rect width="1.893" x="5.474" y="1.089"  height="9.783" id="connector0pin"/>
    <rect width="0.866" x="5.952" y="0.406"  height="0.686" id="connector0terminal"/>
    <rect width="1.894" x="5.477" y="54.369"  height="9.783" id="connector1pin"/>
    <rect width="0.866" x="5.956" y="64.082"  height="0.688" id="connector1terminal"/>
    <g >
     <polyline fill="#FFFFFF" points="6.405,1.132,6.405,20.392,9.905,22.255,2.655,26.291,9.905,30.324,2.655,34.359,9.905,38.392,2.655,42.427,6.405,44.599,6.405,63.861"  stroke="#000000" stroke-linecap="round" stroke-width="2.2284"/>
    </g>
   </g>
  </g>
 </g>
 <g partID="64010">
  <g transform="translate(131.49,238.392)">
   <g  id="schematic">
    <path fill="none"  stroke="#000000" id="connector0pin" stroke-width="1.92" d="M8.9712,17.008L8.9712,0"/>
    <rect width="0.756" x="8.592" fill="none"  height="0.7624" id="connector0terminal"/>
    <path fill="none"  stroke="#000000" id="path4098" stroke-width="1.92" d="M0,17.008l17.9408,0"/>
    <path fill="none"  stroke="#000000" id="path4100" stroke-width="1.92" d="M2.9888,20.164l11.9616,0"/>
    <path fill="none"  stroke="#000000" id="path4102" stroke-width="1.92" d="M11.956,23.3184L5.9808,23.3184"/>
   </g>
  </g>
 </g>
 <g partID="64170">
  <g transform="translate(155.335,25.426)">
   <g  id="schematic">
    <rect width="1.893" x="5.474" y="1.089"  height="9.783" id="connector0pin"/>
    <rect width="0.866" x="5.952" y="0.406"  height="0.686" id="connector0terminal"/>
    <rect width="1.894" x="5.477" y="54.369"  height="9.783" id="connector1pin"/>
    <rect width="0.866" x="5.956" y="64.082"  height="0.688" id="connector1terminal"/>
    <g >
     <polyline fill="#FFFFFF" points="6.405,1.132,6.405,20.392,9.905,22.255,2.655,26.291,9.905,30.324,2.655,34.359,9.905,38.392,2.655,42.427,6.405,44.599,6.405,63.861"  stroke="#000000" stroke-linecap="round" stroke-width="2.2284"/>
    </g>
   </g>
  </g>
 </g>
 <g partID="64220">
  <g transform="translate(155.335,75.0323)">
   <g  id="schematic">
    <rect width="1.893" x="5.474" y="1.089"  height="9.783" id="connector0pin"/>
    <rect width="0.866" x="5.952" y="0.406"  height="0.686" id="connector0terminal"/>
    <rect width="1.894" x="5.477" y="54.369"  height="9.783" id="connector1pin"/>
    <rect width="0.866" x="5.956" y="64.082"  height="0.688" id="connector1terminal"/>
    <g >
     <polyline fill="#FFFFFF" points="6.405,1.132,6.405,20.392,9.905,22.255,2.655,26.291,9.905,30.324,2.655,34.359,9.905,38.392,2.655,42.427,6.405,44.599,6.405,63.861"  stroke="#000000" stroke-linecap="round" stroke-width="2.2284"/>
    </g>
   </g>
  </g>
 </g>
 <g partID="64250">
  <g transform="translate(155.335,152.985)">
   <g  id="schematic">
    <rect width="1.893" x="5.474" y="1.089"  height="9.783" id="connector0pin"/>
    <rect width="0.866" x="5.952" y="0.406"  height="0.686" id="connector0terminal"/>
    <rect width="1.894" x="5.477" y="54.369"  height="9.783" id="connector1pin"/>
    <rect width="0.866" x="5.956" y="64.082"  height="0.688" id="connector1terminal"/>
    <g >
     <polyline fill="#FFFFFF" points="6.405,1.132,6.405,20.392,9.905,22.255,2.655,26.291,9.905,30.324,2.655,34.359,9.905,38.392,2.655,42.427,6.405,44.599,6.405,63.861"  stroke="#000000" stroke-linecap="round" stroke-width="2.2284"/>
    </g>
   </g>
  </g>
 </g>
 <g partID="65380">
  <g transform="translate(290.425,68.6815)">
   <g id="schematic">
    <path stroke-opacity="1" fill="#000000" stroke="none" style="font-style:normal;font-variant:normal;font-weight:bold;font-stretch:normal;stroke-linecap:butt;stroke-linejoin:miter;font-family:DroidSans;-inkscape-font-specification:DroidSans" fill-opacity="1" id="text2416" stroke-width="0" d="M26.9598,18.4116C27.0025,18.4116,27.0409,18.4159,27.075,18.4244C27.1348,18.4415,27.1881,18.4714,27.235,18.514C27.3076,18.5695,27.3566,18.642,27.3822,18.7316C27.3865,18.7444,27.3886,18.7594,27.3886,18.7764C27.3929,18.8191,27.395,19.4698,27.395,20.7284L27.395,22.5332L28.3358,22.5332C29.0313,22.5332,29.3961,22.5354,29.4302,22.5396C29.4388,22.5396,29.4452,22.5396,29.4494,22.5396C29.5518,22.561,29.635,22.6122,29.699,22.6932C29.7673,22.7743,29.8014,22.8682,29.8014,22.9748C29.8014,23.0772,29.7673,23.169,29.699,23.25C29.635,23.3268,29.5518,23.3759,29.4494,23.3972C29.4409,23.3972,29.4345,23.3972,29.4302,23.3972C29.3876,23.4015,28.9204,23.4036,28.0286,23.4036L26.531,23.4036L26.531,21.0484C26.531,20.9503,26.531,20.818,26.531,20.6516C26.531,20.481,26.531,20.3636,26.531,20.2996C26.531,19.3311,26.5332,18.8191,26.5374,18.7636C26.5417,18.7423,26.5481,18.721,26.5566,18.6996L26.5566,18.6932C26.5566,18.6932,26.5566,18.6954,26.5566,18.6996C26.578,18.6484,26.5993,18.61,26.6206,18.5844C26.6377,18.5674,26.6505,18.5546,26.659,18.546C26.6932,18.5119,26.723,18.4863,26.7486,18.4692C26.7657,18.4607,26.7828,18.4522,26.7998,18.4436C26.8254,18.4351,26.8532,18.4287,26.883,18.4244C26.9044,18.4159,26.93,18.4116,26.9598,18.4116M31.106,20.7668L31.106,18.4116L32.066,18.4116L32.7444,19.378L33.4164,18.4116L34.3828,18.4116L34.3828,20.7796C34.3828,20.7796,34.3807,21.5327,34.3764,23.0388C34.3764,23.0559,34.3743,23.0708,34.37,23.0836C34.3316,23.2116,34.2548,23.3034,34.1396,23.3588C34.0756,23.3887,34.0116,23.4036,33.9476,23.4036C33.8964,23.4036,33.8474,23.3951,33.8004,23.378C33.7791,23.3695,33.762,23.361,33.7492,23.3524C33.7322,23.3439,33.7151,23.3332,33.698,23.3204C33.6852,23.3119,33.6703,23.2991,33.6532,23.282C33.5935,23.2266,33.5508,23.1583,33.5252,23.0772C33.521,23.0644,33.5188,23.0495,33.5188,23.0324C33.5146,22.9898,33.5124,22.3796,33.5124,21.202L33.5124,19.794L33.1732,20.274L33.1732,20.3252C33.1732,20.4106,33.169,20.4682,33.1604,20.498C33.1562,20.5194,33.1498,20.5407,33.1412,20.562C33.1327,20.5791,33.1242,20.5962,33.1156,20.6132C33.0815,20.6687,33.0346,20.7156,32.9748,20.754C32.9066,20.801,32.8276,20.8244,32.738,20.8244C32.721,20.8244,32.7039,20.8244,32.6868,20.8244C32.6271,20.8159,32.5716,20.7967,32.5204,20.7668C32.4308,20.7156,32.369,20.6452,32.3348,20.5556C32.322,20.513,32.3135,20.4767,32.3092,20.4468C32.3092,20.4298,32.3092,20.3935,32.3092,20.338L32.3028,20.274L31.9764,19.8004L31.97,21.2084C31.97,22.3946,31.9679,23.0047,31.9636,23.0388C31.9636,23.0559,31.9615,23.0708,31.9572,23.0836C31.9188,23.2116,31.842,23.3034,31.7268,23.3588C31.6671,23.3887,31.6052,23.4036,31.5412,23.4036C31.4858,23.4036,31.4367,23.3951,31.394,23.378C31.3428,23.3567,31.3023,23.3354,31.2724,23.314C31.2596,23.3012,31.2468,23.2884,31.234,23.2756C31.217,23.2543,31.2042,23.2394,31.1956,23.2308C31.17,23.201,31.1487,23.1647,31.1316,23.122C31.1231,23.1007,31.1167,23.0772,31.1124,23.0516C31.1082,22.9962,31.106,22.4842,31.106,21.5156C31.106,21.4516,31.106,21.3364,31.106,21.17C31.106,21.0036,31.106,20.8692,31.106,20.7668M41.7472,18.4116C41.807,18.4116,41.888,18.4116,41.9904,18.4116C42.0928,18.4116,42.1675,18.4116,42.2144,18.4116C42.6368,18.4116,42.8694,18.4159,42.912,18.4244C42.9206,18.4244,42.9291,18.4266,42.9376,18.4308C42.9419,18.4308,42.9547,18.433,42.976,18.4372C43.1211,18.4756,43.2427,18.5503,43.3408,18.6612C43.4432,18.7722,43.5051,18.9044,43.5264,19.058C43.5307,19.0922,43.5328,19.314,43.5328,19.7236C43.5328,20.1375,43.5307,20.3658,43.5264,20.4084C43.5051,20.5919,43.4411,20.7583,43.3344,20.9076C43.3899,20.9887,43.4347,21.074,43.4688,21.1636C43.4902,21.2191,43.5072,21.2831,43.52,21.3556L43.5328,21.4196L43.5328,22.7508L43.52,22.8084C43.4902,22.9322,43.439,23.0388,43.3664,23.1284C43.2384,23.2863,43.0742,23.3759,42.8736,23.3972C42.848,23.4015,42.6262,23.4036,42.208,23.4036C42.08,23.4036,41.92,23.4036,41.728,23.4036L40.6144,23.4036L40.5696,23.3844C40.4587,23.3503,40.3776,23.2948,40.3264,23.218C40.2795,23.137,40.256,23.0559,40.256,22.9748C40.256,22.8895,40.2795,22.8063,40.3264,22.7252C40.3776,22.6442,40.4587,22.5866,40.5696,22.5524L40.6144,22.5396L42.6624,22.5332L42.6624,22.066C42.6624,21.6778,42.6603,21.4772,42.656,21.4644L42.6432,21.4452C42.6262,21.4068,42.5984,21.3791,42.56,21.362L42.5408,21.3492C42.5152,21.345,42.2976,21.3428,41.888,21.3428C41.4571,21.3386,41.2224,21.3343,41.184,21.33C41.1627,21.3258,41.1414,21.3172,41.12,21.3044C41.1158,21.3044,41.1115,21.3044,41.1072,21.3044C41.103,21.3002,41.1008,21.298,41.1008,21.298C40.9856,21.2426,40.9088,21.153,40.8704,21.0292C40.8619,20.9994,40.8576,20.9695,40.8576,20.9396C40.8576,20.9268,40.8576,20.9162,40.8576,20.9076C40.8576,20.8607,40.8598,20.8287,40.864,20.8116C40.8683,20.8031,40.8704,20.7946,40.8704,20.786C40.9088,20.6623,40.9856,20.5727,41.1008,20.5172L41.12,20.5108C41.1414,20.498,41.1627,20.4895,41.184,20.4852C41.2224,20.4767,41.4571,20.4724,41.888,20.4724L42.5152,20.4724L42.528,20.466C42.592,20.4447,42.6347,20.402,42.656,20.338C42.6603,20.3167,42.6624,20.1204,42.6624,19.7492L42.6624,19.282L40.6144,19.282L40.5696,19.2628C40.4374,19.2244,40.3456,19.1455,40.2944,19.026C40.2688,18.9706,40.256,18.9108,40.256,18.8468C40.256,18.7828,40.2688,18.7231,40.2944,18.6676C40.3542,18.5268,40.463,18.4436,40.6208,18.418C40.6379,18.4138,41.0134,18.4116,41.7472,18.4116M45.4326,21.3428L45.4326,18.4116L46.6294,18.4116C47.3292,18.4116,47.6961,18.4138,47.7302,18.418C47.7388,18.418,47.7452,18.418,47.7494,18.418C47.8518,18.4394,47.935,18.4906,47.999,18.5716C48.0673,18.6527,48.1014,18.7466,48.1014,18.8532C48.1014,18.9556,48.0673,19.0474,47.999,19.1284C47.935,19.2052,47.8518,19.2543,47.7494,19.2756C47.7238,19.2799,47.4529,19.282,46.9366,19.282L46.2966,19.282L46.2966,20.4724L46.7894,20.4724L46.8342,20.4724C47.2481,20.4724,47.487,20.481,47.551,20.498C47.7004,20.5364,47.8241,20.6132,47.9222,20.7284C48.0246,20.8436,48.0844,20.978,48.1014,21.1316C48.1057,21.1572,48.1078,21.3108,48.1078,21.5924C48.1078,21.6948,48.1078,21.8186,48.1078,21.9636L48.1078,22.7572L48.095,22.8084C48.0652,22.9322,48.014,23.0388,47.9414,23.1284C47.8348,23.2564,47.7046,23.3396,47.551,23.378C47.487,23.3951,47.2246,23.4036,46.7638,23.4036L46.6742,23.4036C46.175,23.4036,45.9041,23.4015,45.8614,23.3972C45.7889,23.3887,45.7228,23.3738,45.663,23.3524C45.646,23.3439,45.5436,23.3012,45.3558,23.2244C45.1724,23.1476,45.0657,23.1007,45.0358,23.0836C44.9633,23.041,44.9078,22.977,44.8694,22.8916C44.8438,22.8362,44.831,22.7764,44.831,22.7124C44.831,22.6442,44.846,22.5802,44.8758,22.5204C44.91,22.4436,44.9612,22.3839,45.0294,22.3412C45.102,22.2986,45.1788,22.2772,45.2598,22.2772C45.3068,22.2772,45.3516,22.2858,45.3942,22.3028C45.4156,22.3071,45.5137,22.3455,45.6886,22.418C45.855,22.4906,45.9382,22.5268,45.9382,22.5268C45.9596,22.5311,46.1964,22.5332,46.6486,22.5332L47.2374,22.5332L47.2374,21.3428L45.4326,21.3428M50.7948,18.4116C50.8375,18.4116,50.9228,18.4116,51.0508,18.4116C51.4775,18.4159,51.71,18.4202,51.7484,18.4244C51.7698,18.4287,51.7911,18.4372,51.8124,18.45C51.8167,18.45,51.821,18.4522,51.8252,18.4564C51.8295,18.4564,51.8316,18.4564,51.8316,18.4564C51.9212,18.4991,51.9874,18.5652,52.03,18.6548L52.0364,18.6676C52.0492,18.689,52.0578,18.7146,52.062,18.7444C52.0706,18.7828,52.0748,19.1007,52.0748,19.698L52.0748,20.4852C52.0919,20.4895,52.109,20.4938,52.126,20.498C52.2583,20.5322,52.3735,20.5983,52.4716,20.6964C52.5698,20.7946,52.6338,20.9119,52.6636,21.0484C52.6764,21.1039,52.6828,21.2639,52.6828,21.5284C52.6828,21.601,52.6828,21.746,52.6828,21.9636L52.6828,22.7572L52.67,22.8084C52.6402,22.9322,52.589,23.0388,52.5164,23.1284C52.3884,23.2863,52.2242,23.3759,52.0236,23.3972C51.998,23.4015,51.8146,23.4036,51.4732,23.4036C51.3495,23.4036,51.198,23.4036,51.0188,23.4036L50.0524,23.4036L50.0012,23.3908C49.822,23.3482,49.6791,23.2607,49.5724,23.1284C49.5042,23.0474,49.4551,22.9535,49.4252,22.8468C49.4124,22.7871,49.406,22.5204,49.406,22.0468L49.406,21.938L49.406,21.8292C49.406,21.3556,49.4124,21.089,49.4252,21.0292C49.4636,20.8927,49.534,20.7754,49.6364,20.6772C49.7431,20.5748,49.8668,20.5108,50.0076,20.4852L50.0076,19.7108L50.0076,19.4804C50.0076,19.0239,50.0119,18.7764,50.0204,18.738C50.0204,18.7338,50.0204,18.7295,50.0204,18.7252C50.0247,18.7167,50.029,18.7082,50.0332,18.6996C50.0546,18.6484,50.0759,18.61,50.0972,18.5844C50.11,18.5674,50.1228,18.5546,50.1356,18.546C50.174,18.5119,50.2039,18.4863,50.2252,18.4692C50.2423,18.4607,50.2594,18.4522,50.2764,18.4436C50.302,18.4351,50.3298,18.4287,50.3596,18.4244C50.381,18.4159,50.526,18.4116,50.7948,18.4116M51.2108,20.4724L51.2108,19.282L50.8716,19.282L50.8716,20.4724L51.2108,20.4724M51.8124,22.5332L51.8124,21.3428L50.27,21.3428L50.27,22.5332L51.8124,22.5332" font-size="8px"/>
    <line fill="none" stroke="#000000" style="stroke-linecap:round;stroke-linejoin:round" id="line2717" y1="165.72" x1="69.72" y2="140.92" stroke-width="1.84" x2="69.72"/>
    <rect width="1.6" x="68.92" y="157.04" height="8" id="connector3pin"/>
    <rect width="8" x="0.92" y="94.52" height="1.6" id="connector5pin"/>
    <rect width="8" x="130.52" y="55.28" height="1.6" id="connector0pin"/>
    <rect width="8" x="0.92" y="41.72" height="1.6" id="connector1pin"/>
    <rect width="8" x="0" y="120.879" height="1.6" id="connector4pin"/>
    <rect width="8" x="0.92" y="68.143" height="1.6" id="connector2pin"/>
    <rect width="8" x="131.634" y="107.873" height="1.6" id="connector6pin"/>
    <rect width="1.6" x="68.92" y="0.92" height="8" id="connector7pin"/>
    <rect width="1.6" x="136.92" y="55.28" height="1.6" id="connector0terminal"/>
    <rect width="1.6" x="0" y="41.72" height="1.6" id="connector1terminal"/>
    <rect width="1.6" x="0" y="68.143" height="1.6" id="connector2terminal"/>
    <rect width="1.6" x="68.92" y="165.04" height="1.6" id="connector3terminal"/>
    <rect width="1.6" x="0" y="94.52" height="1.6" id="connector5terminal"/>
    <rect width="1.6" x="0" y="120.879" height="1.6" id="connector4terminal"/>
    <rect width="1.6" x="138.034" y="107.92" height="1.6" id="connector6terminal"/>
    <rect width="1.6" x="68.92" y="0" height="1.6" id="connector7terminal"/>
    <rect width="88" x="25.72" y="25.72" fill="none" height="114.4" stroke="#000000" style="stroke-linecap:round;stroke-linejoin:round" id="rect2707" stroke-width="1.84"/>
    <line fill="none" stroke="#000000" style="stroke-linecap:round;stroke-linejoin:round" id="line2709" y1="56.08" x1="92" y2="56.08" stroke-width="1.84" x2="138.52"/>
    <line fill="none" stroke="#000000" style="stroke-linecap:round;stroke-linejoin:round" id="line2711" y1="68.943" x1="0.92" y2="68.943" stroke-width="1.84" x2="52.8"/>
    <line fill="none" stroke="#000000" style="stroke-linecap:round;stroke-linejoin:round" id="line2713" y1="42.52" x1="0.92" y2="42.52" stroke-width="1.84" x2="52.8"/>
    <line fill="none" stroke="#000000" style="stroke-linecap:round;stroke-linejoin:round" id="line2715" y1="95.3659" x1="0.92" y2="95.3659" stroke-width="1.84" x2="52.8"/>
    <line fill="none" stroke="#000000" style="stroke-linecap:round;stroke-linejoin:round" id="line2721" y1="0.92" x1="69.72" y2="25.72" stroke-width="1.84" x2="69.72"/>
    <line fill="none" stroke="#000000" style="stroke-linecap:round;stroke-linejoin:round" id="line2956" y1="121.789" x1="0.92" y2="121.789" stroke-width="1.84" x2="52.8"/>
    <line fill="none" stroke="#000000" style="stroke-linecap:round;stroke-linejoin:round" id="line2958" y1="108.731" x1="92" y2="108.731" stroke-width="1.84" x2="138.52"/>
    <g transform="matrix(1.27271, 0, 0, 1.26172, 12.5526, 2.67287)">
     <path stroke-opacity="1" fill="none" stroke="#000000" style="stroke-linecap:round;stroke-linejoin:round;stroke-miterlimit:4;stroke-dasharray:none;" fill-opacity="1" id="path2960" stroke-width="1.60353" d="M32.5166,59.1938L32.6689,25.1756L62.0534,42.3166L32.5166,59.1938z"/>
    </g>
    <g transform="matrix(1.27271, 0, 0, 1.26172, 12.5525, 55.3401)">
     <path stroke-opacity="1" fill="none" stroke="#000000" style="stroke-linecap:round;stroke-linejoin:round;stroke-miterlimit:4;stroke-dasharray:none;" fill-opacity="1" id="path3732" stroke-width="1.60353" d="M32.5166,59.1938L32.6689,25.1756L62.0534,42.3166L32.5166,59.1938z"/>
    </g>
    <rect width="1.6" x="138.034" y="108.156" height="1.6" id="rect3736"/>
    <rect width="8" x="131.634" y="107.873" height="1.6" id="rect3738"/>
    <path stroke-opacity="1" fill="#000000" stroke="none" style="font-style:normal;font-variant:normal;font-weight:bold;font-stretch:normal;stroke-linecap:butt;stroke-linejoin:miter;font-family:DroidSans;-inkscape-font-specification:DroidSans" fill-opacity="1" id="text3740" stroke-width="0" d="M57.8184,41.9702C57.9379,41.9702,58.0851,41.9702,58.26,41.9702C59.0664,41.9702,59.4867,41.9724,59.5208,41.9766C59.5379,41.9766,59.5528,41.9788,59.5656,41.983C59.6253,42.0044,59.6787,42.0321,59.7256,42.0662C59.7725,42.1046,59.8109,42.1537,59.8408,42.2134C59.8664,42.2646,59.8792,42.3137,59.8792,42.3606C59.8835,42.3862,59.8856,42.4417,59.8856,42.527C59.8856,42.527,59.8856,42.5292,59.8856,42.5334C59.8856,42.5334,59.8856,42.5356,59.8856,42.5398C59.8856,42.6294,59.8835,42.6849,59.8792,42.7062C59.8792,42.7532,59.8664,42.8022,59.8408,42.8534C59.8109,42.9132,59.7725,42.9622,59.7256,43.0006C59.6787,43.039,59.6253,43.0668,59.5656,43.0838C59.5528,43.0881,59.5379,43.0902,59.5208,43.0902C59.4867,43.0945,59.0685,43.0966,58.2664,43.0966C58.0147,43.0966,57.8227,43.0966,57.6904,43.0966C57.2552,43.0966,57.0227,43.0945,56.9928,43.0902C56.9843,43.0902,56.98,43.0902,56.98,43.0902C56.9203,43.0817,56.8669,43.0646,56.82,43.039C56.756,43.0006,56.7048,42.9494,56.6664,42.8854C56.6536,42.8598,56.6429,42.8364,56.6344,42.815C56.6259,42.7852,56.6195,42.7617,56.6152,42.7446C56.6109,42.7105,56.6088,42.6401,56.6088,42.5334C56.6088,42.4225,56.6109,42.3521,56.6152,42.3222C56.6195,42.2966,56.6259,42.2732,56.6344,42.2518C56.6515,42.2049,56.6728,42.1665,56.6984,42.1366C56.7155,42.1196,56.7283,42.1068,56.7368,42.0982C56.7752,42.0641,56.8051,42.0406,56.8264,42.0278C56.8435,42.0193,56.8605,42.0108,56.8776,42.0022C56.9032,41.9894,56.9309,41.9809,56.9608,41.9766C56.9693,41.9766,56.9757,41.9766,56.98,41.9766C57.0184,41.9724,57.2979,41.9702,57.8184,41.9702" font-size="8px"/>
    <path stroke-opacity="1" fill="#000000" stroke="none" style="font-style:normal;font-variant:normal;font-weight:bold;font-stretch:normal;stroke-linecap:butt;stroke-linejoin:miter;font-family:DroidSans;-inkscape-font-specification:DroidSans" fill-opacity="1" id="text3744" stroke-width="0" d="M58.2408,67.2493C58.2835,67.2493,58.3219,67.2536,58.356,67.2621C58.3773,67.2706,58.4029,67.2813,58.4328,67.2941C58.5224,67.3368,58.5885,67.4029,58.6312,67.4925C58.644,67.5181,58.6504,67.533,58.6504,67.5373C58.6589,67.5501,58.6632,67.5629,58.6632,67.5757C58.6717,67.6098,58.676,67.7869,58.676,68.1069L58.676,68.4525L59.0152,68.4525C59.3181,68.4525,59.4845,68.4546,59.5144,68.4589C59.5187,68.4589,59.5229,68.4589,59.5272,68.4589C59.6296,68.4802,59.7128,68.5314,59.7768,68.6125C59.8451,68.6893,59.8792,68.781,59.8792,68.8877C59.8792,68.9901,59.8451,69.0818,59.7768,69.1629C59.7128,69.244,59.6296,69.2952,59.5272,69.3165C59.5016,69.3208,59.3309,69.3229,59.0152,69.3229L58.676,69.3229L58.676,69.6685C58.676,69.9885,58.6717,70.1677,58.6632,70.2061C58.6632,70.2189,58.6589,70.2296,58.6504,70.2381C58.6504,70.2424,58.644,70.2573,58.6312,70.2829C58.5885,70.3725,58.5224,70.4386,58.4328,70.4813C58.3731,70.5112,58.3112,70.5261,58.2472,70.5261C58.1917,70.5261,58.1427,70.5176,58.1,70.5005C58.0488,70.4834,58.0083,70.4621,57.9784,70.4365C57.9656,70.4237,57.9528,70.4109,57.94,70.3981C57.9229,70.381,57.9101,70.3682,57.9016,70.3597C57.876,70.3256,57.8547,70.2872,57.8376,70.2445C57.8248,70.2146,57.8184,70.1848,57.8184,70.1549C57.8141,70.1165,57.812,69.9672,57.812,69.7069L57.812,69.6557L57.812,69.3229L56.9672,69.3165L56.9224,69.3037C56.8115,69.2696,56.7304,69.212,56.6792,69.1309C56.6323,69.0498,56.6088,68.9688,56.6088,68.8877C56.6088,68.8024,56.6323,68.7192,56.6792,68.6381C56.7304,68.557,56.8115,68.4994,56.9224,68.4653L56.9672,68.4525L57.812,68.4525L57.812,68.1197L57.812,68.0685C57.812,67.8082,57.8141,67.6589,57.8184,67.6205C57.8184,67.5906,57.8248,67.5608,57.8376,67.5309C57.8547,67.484,57.876,67.4456,57.9016,67.4157C57.9144,67.4029,57.9272,67.3901,57.94,67.3773C57.9741,67.3432,58.004,67.3197,58.0296,67.3069C58.0467,67.2984,58.0637,67.2898,58.0808,67.2813C58.1064,67.2728,58.1341,67.2642,58.164,67.2557C58.1811,67.2514,58.2067,67.2493,58.2408,67.2493" font-size="8px"/>
    <path stroke-opacity="1" fill="#000000" stroke="none" style="font-style:normal;font-variant:normal;font-weight:bold;font-stretch:normal;stroke-linecap:butt;stroke-linejoin:miter;font-family:DroidSans;-inkscape-font-specification:DroidSans" fill-opacity="1" id="text3748" stroke-width="0" d="M57.8183,94.9536C57.9378,94.9536,58.085,94.9536,58.2599,94.9536C59.0663,94.9536,59.4866,94.9557,59.5207,94.96C59.5378,94.96,59.5527,94.9621,59.5655,94.9664C59.6253,94.9877,59.6786,95.0155,59.7255,95.0496C59.7725,95.088,59.8109,95.1371,59.8407,95.1968C59.8663,95.248,59.8791,95.2971,59.8791,95.344C59.8834,95.3696,59.8855,95.4251,59.8855,95.5104C59.8855,95.5104,59.8855,95.5125,59.8855,95.5168C59.8855,95.5168,59.8855,95.5189,59.8855,95.5232C59.8855,95.6128,59.8834,95.6683,59.8791,95.6896C59.8791,95.7365,59.8663,95.7856,59.8407,95.8368C59.8109,95.8965,59.7725,95.9456,59.7255,95.984C59.6786,96.0224,59.6253,96.0501,59.5655,96.0672C59.5527,96.0715,59.5378,96.0736,59.5207,96.0736C59.4866,96.0779,59.0685,96.08,58.2663,96.08C58.0146,96.08,57.8226,96.08,57.6903,96.08C57.2551,96.08,57.0226,96.0779,56.9927,96.0736C56.9842,96.0736,56.9799,96.0736,56.9799,96.0736C56.9202,96.0651,56.8669,96.048,56.8199,96.0224C56.7559,95.984,56.7047,95.9328,56.6663,95.8688C56.6535,95.8432,56.6429,95.8197,56.6343,95.7984C56.6258,95.7685,56.6194,95.7451,56.6151,95.728C56.6109,95.6939,56.6087,95.6235,56.6087,95.5168C56.6087,95.4059,56.6109,95.3355,56.6151,95.3056C56.6194,95.28,56.6258,95.2565,56.6343,95.2352C56.6514,95.1883,56.6727,95.1499,56.6983,95.12C56.7154,95.1029,56.7282,95.0901,56.7367,95.0816C56.7751,95.0475,56.805,95.024,56.8263,95.0112C56.8434,95.0027,56.8605,94.9941,56.8775,94.9856C56.9031,94.9728,56.9309,94.9643,56.9607,94.96C56.9693,94.96,56.9757,94.96,56.9799,94.96C57.0183,94.9557,57.2978,94.9536,57.8183,94.9536" font-size="8px"/>
    <path stroke-opacity="1" fill="#000000" stroke="none" style="font-style:normal;font-variant:normal;font-weight:bold;font-stretch:normal;stroke-linecap:butt;stroke-linejoin:miter;font-family:DroidSans;-inkscape-font-specification:DroidSans" fill-opacity="1" id="text3752" stroke-width="0" d="M58.2408,119.947C58.2835,119.947,58.3219,119.952,58.356,119.96C58.3773,119.969,58.4029,119.979,58.4328,119.992C58.5224,120.035,58.5885,120.101,58.6312,120.191C58.644,120.216,58.6504,120.231,58.6504,120.235C58.6589,120.248,58.6632,120.261,58.6632,120.274C58.6717,120.308,58.676,120.485,58.676,120.805L58.676,121.151L59.0152,121.151C59.3181,121.151,59.4845,121.153,59.5144,121.157C59.5187,121.157,59.5229,121.157,59.5272,121.157C59.6296,121.178,59.7128,121.229,59.7768,121.311C59.8451,121.387,59.8792,121.479,59.8792,121.586C59.8792,121.688,59.8451,121.78,59.7768,121.861C59.7128,121.942,59.6296,121.993,59.5272,122.015C59.5016,122.019,59.3309,122.021,59.0152,122.021L58.676,122.021L58.676,122.367C58.676,122.687,58.6717,122.866,58.6632,122.904C58.6632,122.917,58.6589,122.928,58.6504,122.936C58.6504,122.94,58.644,122.955,58.6312,122.981C58.5885,123.071,58.5224,123.137,58.4328,123.179C58.3731,123.209,58.3112,123.224,58.2472,123.224C58.1917,123.224,58.1427,123.216,58.1,123.199C58.0488,123.181,58.0083,123.16,57.9784,123.135C57.9656,123.122,57.9528,123.109,57.94,123.096C57.9229,123.079,57.9101,123.066,57.9016,123.058C57.876,123.024,57.8547,122.985,57.8376,122.943C57.8248,122.913,57.8184,122.883,57.8184,122.853C57.8141,122.815,57.812,122.665,57.812,122.405L57.812,122.354L57.812,122.021L56.9672,122.015L56.9224,122.002C56.8115,121.968,56.7304,121.91,56.6792,121.829C56.6323,121.748,56.6088,121.667,56.6088,121.586C56.6088,121.5,56.6323,121.417,56.6792,121.336C56.7304,121.255,56.8115,121.197,56.9224,121.163L56.9672,121.151L57.812,121.151L57.812,120.818L57.812,120.767C57.812,120.506,57.8141,120.357,57.8184,120.319C57.8184,120.289,57.8248,120.259,57.8376,120.229C57.8547,120.182,57.876,120.144,57.9016,120.114C57.9144,120.101,57.9272,120.088,57.94,120.075C57.9741,120.041,58.004,120.018,58.0296,120.005C58.0467,119.996,58.0637,119.988,58.0808,119.979C58.1064,119.971,58.1341,119.962,58.164,119.954C58.1811,119.949,58.2067,119.947,58.2408,119.947" font-size="8px"/>
    <path stroke-opacity="1" fill="#000000" stroke="none" style="font-style:normal;font-variant:normal;font-weight:bold;font-stretch:normal;stroke-linecap:butt;stroke-linejoin:miter;font-family:DroidSans;-inkscape-font-specification:DroidSans" fill-opacity="1" id="text3760" stroke-width="0" d="M64.0354,28.4544C64.0781,28.4544,64.1165,28.4587,64.1506,28.4672C64.1719,28.4757,64.1975,28.4864,64.2274,28.4992C64.317,28.5419,64.3831,28.608,64.4258,28.6976C64.4386,28.7232,64.445,28.736,64.445,28.736C64.4493,28.7488,64.4535,28.7595,64.4578,28.768C64.4663,28.8064,64.4706,29.0005,64.4706,29.3504L64.477,29.8432L64.9122,30.9696L65.245,31.808L66.013,29.8368L66.013,29.3632C66.013,29.3632,66.013,29.3419,66.013,29.2992C66.013,29.0304,66.0151,28.8768,66.0194,28.8384C66.0237,28.8043,66.0322,28.7723,66.045,28.7424C66.0621,28.6955,66.0834,28.6571,66.109,28.6272C66.1218,28.6101,66.1325,28.5973,66.141,28.5888C66.1623,28.5675,66.1773,28.5547,66.1858,28.5504C66.2199,28.5205,66.2583,28.4971,66.301,28.48C66.3522,28.4629,66.4013,28.4544,66.4482,28.4544C66.5122,28.4544,66.5762,28.4693,66.6402,28.4992C66.7298,28.5419,66.7959,28.608,66.8386,28.6976C66.8386,28.6976,66.8429,28.7061,66.8514,28.7232C66.8599,28.7403,66.8663,28.7595,66.8706,28.7808C66.8791,28.8192,66.8834,29.0283,66.8834,29.408L66.8834,30.0032L66.2562,31.6032C65.9575,32.3883,65.7506,32.9195,65.6354,33.1968C65.6354,33.2011,65.6333,33.2053,65.629,33.2096C65.6077,33.2523,65.5778,33.2928,65.5394,33.3312C65.4541,33.408,65.3559,33.4464,65.245,33.4464C65.1639,33.4464,65.0871,33.4229,65.0146,33.376C64.9421,33.3333,64.8866,33.2736,64.8482,33.1968C64.8269,33.1456,64.6263,32.6272,64.2466,31.6416L63.6322,30.0736L63.6066,30.0032L63.6066,29.4208L63.6066,29.3312C63.6066,29.0411,63.6087,28.8747,63.613,28.832C63.613,28.8021,63.6194,28.7723,63.6322,28.7424C63.6493,28.6955,63.6706,28.6571,63.6962,28.6272C63.7133,28.6101,63.7261,28.5973,63.7346,28.5888C63.7687,28.5547,63.7986,28.5291,63.8242,28.512C63.8413,28.5035,63.8583,28.4949,63.8754,28.4864C63.901,28.4779,63.9287,28.4715,63.9586,28.4672C63.9757,28.4587,64.0013,28.4544,64.0354,28.4544M70.396,29.7408C70.8397,29.7408,71.0744,29.7451,71.1,29.7536C71.2024,29.7707,71.2856,29.8197,71.3496,29.9008C71.4179,29.9819,71.452,30.0736,71.452,30.176C71.452,30.2656,71.4285,30.3467,71.3816,30.4192C71.3347,30.4917,71.2707,30.5451,71.1896,30.5792L71.1704,30.5856C71.1576,30.5941,71.1427,30.5984,71.1256,30.5984C71.0872,30.6069,70.8376,30.6112,70.3768,30.6112L69.7048,30.6176L69.6984,30.6176C69.6771,30.6219,69.6579,30.6304,69.6408,30.6432C69.6323,30.6517,69.5384,30.7328,69.3592,30.8864C69.1971,31.0229,69.1053,31.1019,69.084,31.1232C69.0712,31.1403,69.0605,31.1616,69.052,31.1872L69.052,31.1936L69.052,31.5904C69.052,31.8549,69.052,31.9915,69.052,32C69.0605,32.0256,69.0712,32.0491,69.084,32.0704C69.0883,32.0747,69.18,32.1536,69.3592,32.3072C69.5384,32.4608,69.6344,32.5419,69.6472,32.5504C69.6557,32.5589,69.6707,32.5653,69.692,32.5696C69.7133,32.5739,69.9416,32.576,70.3768,32.576C70.8376,32.5803,71.0872,32.5845,71.1256,32.5888C71.1427,32.5931,71.1576,32.5973,71.1704,32.6016L71.1896,32.608C71.2707,32.6421,71.3347,32.6955,71.3816,32.768C71.4285,32.8405,71.452,32.9216,71.452,33.0112C71.452,33.1179,71.4179,33.2117,71.3496,33.2928C71.2856,33.3696,71.2024,33.4187,71.1,33.44C71.0701,33.4443,70.8333,33.4464,70.3896,33.4464C69.9203,33.4464,69.6643,33.4443,69.6216,33.44C69.4339,33.4187,69.2675,33.3525,69.1224,33.2416C69.0883,33.216,68.9816,33.1264,68.8024,32.9728C68.6232,32.8192,68.5187,32.7275,68.4888,32.6976C68.348,32.5611,68.2563,32.3989,68.2136,32.2112C68.1923,32.1344,68.1816,31.936,68.1816,31.616C68.1816,31.488,68.1816,31.4005,68.1816,31.3536C68.1816,31.2256,68.1837,31.1403,68.188,31.0976C68.2179,30.8715,68.3117,30.6773,68.4696,30.5152C68.4952,30.4853,68.5997,30.3915,68.7832,30.2336C68.9667,30.0757,69.0776,29.9819,69.116,29.952C69.2611,29.8411,69.4296,29.7749,69.6216,29.7536C69.66,29.7451,69.9181,29.7408,70.396,29.7408M74.971,29.7408C75.4147,29.7408,75.6494,29.7451,75.675,29.7536C75.7774,29.7707,75.8606,29.8197,75.9246,29.9008C75.9929,29.9819,76.027,30.0736,76.027,30.176C76.027,30.2656,76.0035,30.3467,75.9566,30.4192C75.9097,30.4917,75.8457,30.5451,75.7646,30.5792L75.7454,30.5856C75.7326,30.5941,75.7177,30.5984,75.7006,30.5984C75.6622,30.6069,75.4126,30.6112,74.9518,30.6112L74.2798,30.6176L74.2734,30.6176C74.2521,30.6219,74.2329,30.6304,74.2158,30.6432C74.2073,30.6517,74.1134,30.7328,73.9342,30.8864C73.7721,31.0229,73.6803,31.1019,73.659,31.1232C73.6462,31.1403,73.6355,31.1616,73.627,31.1872L73.627,31.1936L73.627,31.5904C73.627,31.8549,73.627,31.9915,73.627,32C73.6355,32.0256,73.6462,32.0491,73.659,32.0704C73.6633,32.0747,73.755,32.1536,73.9342,32.3072C74.1134,32.4608,74.2094,32.5419,74.2222,32.5504C74.2307,32.5589,74.2457,32.5653,74.267,32.5696C74.2883,32.5739,74.5166,32.576,74.9518,32.576C75.4126,32.5803,75.6622,32.5845,75.7006,32.5888C75.7177,32.5931,75.7326,32.5973,75.7454,32.6016L75.7646,32.608C75.8457,32.6421,75.9097,32.6955,75.9566,32.768C76.0035,32.8405,76.027,32.9216,76.027,33.0112C76.027,33.1179,75.9929,33.2117,75.9246,33.2928C75.8606,33.3696,75.7774,33.4187,75.675,33.44C75.6451,33.4443,75.4083,33.4464,74.9646,33.4464C74.4953,33.4464,74.2393,33.4443,74.1966,33.44C74.0089,33.4187,73.8425,33.3525,73.6974,33.2416C73.6633,33.216,73.5566,33.1264,73.3774,32.9728C73.1982,32.8192,73.0937,32.7275,73.0638,32.6976C72.923,32.5611,72.8313,32.3989,72.7886,32.2112C72.7673,32.1344,72.7566,31.936,72.7566,31.616C72.7566,31.488,72.7566,31.4005,72.7566,31.3536C72.7566,31.2256,72.7587,31.1403,72.763,31.0976C72.7929,30.8715,72.8867,30.6773,73.0446,30.5152C73.0702,30.4853,73.1747,30.3915,73.3582,30.2336C73.5417,30.0757,73.6526,29.9819,73.691,29.952C73.8361,29.8411,74.0046,29.7749,74.1966,29.7536C74.235,29.7451,74.4931,29.7408,74.971,29.7408" font-size="8px"/>
    <path stroke-opacity="1" fill="#000000" stroke="none" style="font-style:normal;font-variant:normal;font-weight:bold;font-stretch:normal;stroke-linecap:butt;stroke-linejoin:miter;font-family:DroidSans;-inkscape-font-specification:DroidSans" fill-opacity="1" id="text3764" stroke-width="0" d="M65.9746,131.804C65.9874,131.804,66.0087,131.804,66.0386,131.804C66.0685,131.804,66.0919,131.804,66.109,131.804C66.3479,131.804,66.4823,131.806,66.5122,131.811C66.5165,131.811,66.5207,131.811,66.525,131.811C66.6274,131.832,66.7106,131.883,66.7746,131.964C66.8429,132.045,66.877,132.137,66.877,132.239C66.877,132.329,66.8535,132.41,66.8066,132.483C66.7597,132.555,66.6957,132.608,66.6146,132.643C66.5933,132.651,66.5805,132.655,66.5762,132.655C66.5719,132.655,66.5655,132.658,66.557,132.662C66.5229,132.67,66.3351,132.675,65.9938,132.675C65.6653,132.675,65.4946,132.677,65.4818,132.681C65.4818,132.681,65.4775,132.683,65.469,132.687C65.4647,132.692,65.4626,132.694,65.4626,132.694C65.4455,132.702,65.4327,132.711,65.4242,132.719C65.3943,132.754,65.2514,132.935,64.9954,133.263C64.7138,133.622,64.5666,133.812,64.5538,133.833C64.5197,133.88,64.4962,133.94,64.4834,134.012L64.477,134.038L64.477,134.915C64.477,135.461,64.477,135.753,64.477,135.791C64.4941,135.843,64.5261,135.881,64.573,135.907C64.5815,135.911,64.5879,135.915,64.5922,135.919C64.5965,135.919,64.5986,135.919,64.5986,135.919C64.6199,135.924,64.7501,135.926,64.989,135.926C65.0103,135.926,65.0487,135.926,65.1042,135.926C65.1597,135.926,65.2066,135.926,65.245,135.926C65.2706,135.926,65.3133,135.926,65.373,135.926C65.4327,135.926,65.4754,135.926,65.501,135.926C65.7399,135.926,65.8701,135.924,65.8914,135.919C65.8957,135.915,65.8978,135.913,65.8978,135.913C65.9021,135.913,65.9063,135.911,65.9106,135.907C65.949,135.889,65.9767,135.862,65.9938,135.823C66.0023,135.811,66.0066,135.804,66.0066,135.804L66.0066,135.798C66.0109,135.785,66.013,135.672,66.013,135.459L66.013,135.247L65.8274,135.247L65.4754,135.241C65.4455,135.241,65.4178,135.235,65.3922,135.222C65.3453,135.205,65.3069,135.183,65.277,135.158C65.2642,135.145,65.2514,135.132,65.2386,135.119C65.2215,135.102,65.2087,135.089,65.2002,135.081C65.1703,135.047,65.149,135.006,65.1362,134.959C65.1191,134.912,65.1106,134.865,65.1106,134.819C65.1106,134.767,65.1191,134.718,65.1362,134.671C65.1533,134.624,65.1746,134.584,65.2002,134.55C65.213,134.537,65.2258,134.524,65.2386,134.511C65.2557,134.494,65.2685,134.481,65.277,134.473C65.3111,134.447,65.3495,134.426,65.3922,134.409C65.4221,134.396,65.4519,134.39,65.4818,134.39C65.5202,134.385,65.6994,134.383,66.0194,134.383L66.1346,134.383L66.8834,134.383L66.8834,135.158C66.8834,135.593,66.8813,135.832,66.877,135.875C66.8599,135.99,66.8258,136.101,66.7746,136.207C66.6978,136.365,66.5869,136.495,66.4418,136.598C66.2967,136.7,66.1367,136.764,65.9618,136.79C65.9191,136.794,65.6802,136.796,65.245,136.796L65.2002,136.796C64.7607,136.796,64.5047,136.788,64.4322,136.771C64.3127,136.745,64.2039,136.702,64.1058,136.643C63.9693,136.557,63.8562,136.446,63.7666,136.31C63.6813,136.173,63.6301,136.024,63.613,135.862C63.6045,135.819,63.6002,135.51,63.6002,134.934C63.6002,134.341,63.6045,134.021,63.613,133.974C63.6343,133.743,63.7069,133.534,63.8306,133.347C63.8519,133.317,64.0098,133.114,64.3042,132.739C64.5943,132.363,64.7543,132.16,64.7842,132.131C64.9549,131.951,65.1618,131.847,65.405,131.817C65.4477,131.808,65.6375,131.804,65.9746,131.804M68.1816,134.159L68.1816,131.804L69.1992,131.811L69.276,131.977L70.588,134.972L70.588,133.884C70.5923,132.779,70.5944,132.207,70.5944,132.169C70.5987,132.156,70.6008,132.143,70.6008,132.131C70.6264,132.045,70.6691,131.977,70.7288,131.926C70.7459,131.909,70.7608,131.896,70.7736,131.887C70.7907,131.875,70.8077,131.864,70.8248,131.855C70.8419,131.847,70.8589,131.838,70.876,131.83C70.9272,131.813,70.9763,131.804,71.0232,131.804C71.0872,131.804,71.1512,131.819,71.2152,131.849C71.3304,131.904,71.4072,131.996,71.4456,132.124C71.4499,132.137,71.452,132.152,71.452,132.169C71.4563,132.216,71.4584,132.969,71.4584,134.428L71.4584,136.796L70.4344,136.796L69.052,133.635L69.0456,134.723C69.0456,135.828,69.0435,136.399,69.0392,136.438C69.0392,136.451,69.0371,136.463,69.0328,136.476C68.9944,136.604,68.9176,136.696,68.8024,136.751C68.7427,136.781,68.6808,136.796,68.6168,136.796C68.5613,136.796,68.5123,136.788,68.4696,136.771C68.4184,136.749,68.3779,136.728,68.348,136.707C68.3352,136.694,68.3224,136.681,68.3096,136.668C68.2925,136.647,68.2797,136.632,68.2712,136.623C68.2456,136.593,68.2243,136.557,68.2072,136.515C68.1987,136.493,68.1923,136.47,68.188,136.444C68.1837,136.389,68.1816,135.877,68.1816,134.908C68.1816,134.844,68.1816,134.729,68.1816,134.563C68.1816,134.396,68.1816,134.262,68.1816,134.159M73.7614,131.804C73.7614,131.804,73.819,131.804,73.9342,131.804C74.2286,131.804,74.3929,131.806,74.427,131.811C74.5891,131.832,74.7385,131.887,74.875,131.977C75.0115,132.062,75.1225,132.171,75.2078,132.303C75.2206,132.329,75.3401,132.564,75.5662,133.007C75.7497,133.374,75.8606,133.6,75.899,133.686C75.9374,133.771,75.9673,133.854,75.9886,133.935C76.0185,134.051,76.0334,134.172,76.0334,134.3C76.0334,134.428,76.0185,134.55,75.9886,134.665C75.9673,134.746,75.9374,134.829,75.899,134.915C75.8606,135,75.7497,135.226,75.5662,135.593C75.3401,136.037,75.2206,136.271,75.2078,136.297C75.1438,136.399,75.0649,136.487,74.971,136.559C74.8174,136.687,74.6403,136.764,74.4398,136.79C74.3971,136.794,74.2819,136.796,74.0942,136.796C74.0302,136.796,73.915,136.796,73.7486,136.796L73.115,136.796L73.0702,136.777C72.9593,136.743,72.8782,136.687,72.827,136.611C72.7801,136.529,72.7566,136.448,72.7566,136.367C72.7566,136.282,72.7801,136.199,72.827,136.118C72.8782,136.037,72.9593,135.979,73.0702,135.945C73.083,135.941,73.0937,135.936,73.1022,135.932C73.1278,135.932,73.1961,135.93,73.307,135.926L73.3582,135.926L73.3582,132.675L73.307,132.675C73.1918,132.675,73.1235,132.672,73.1022,132.668C73.0937,132.664,73.083,132.66,73.0702,132.655C72.9379,132.617,72.8462,132.538,72.795,132.419C72.7694,132.363,72.7566,132.303,72.7566,132.239C72.7566,132.175,72.7694,132.116,72.795,132.06C72.8547,131.919,72.9635,131.836,73.1214,131.811C73.1385,131.806,73.3518,131.804,73.7614,131.804M74.3566,132.681L74.3566,132.681L74.3566,132.681M74.3566,132.681C74.3481,132.677,74.3054,132.675,74.2286,132.675L74.2222,132.675L74.2222,135.926L74.2286,135.926C74.2969,135.926,74.3374,135.926,74.3502,135.926C74.3587,135.921,74.3715,135.915,74.3886,135.907C74.4142,135.898,74.4355,135.883,74.4526,135.862C74.4611,135.845,74.6339,135.505,74.971,134.844C75.0649,134.652,75.1182,134.541,75.131,134.511C75.1481,134.456,75.1587,134.403,75.163,134.351C75.163,134.334,75.163,134.315,75.163,134.294C75.163,134.23,75.1523,134.161,75.131,134.089C75.1182,134.059,75.0649,133.95,74.971,133.763C74.6339,133.097,74.4611,132.756,74.4526,132.739C74.4313,132.713,74.3993,132.694,74.3566,132.681" font-size="8px"/>
   </g>
  </g>
 </g>
 <g partID="65630">
  <g transform="translate(268.768,104.029)">
   <g transform="matrix(0,1,-1,0,0,0)">
    <g  id="schematic">
     <rect width="1.893" x="5.474" y="1.089"  height="9.783" id="connector0pin"/>
     <rect width="0.866" x="5.952" y="0.406"  height="0.686" id="connector0terminal"/>
     <rect width="1.894" x="5.477" y="54.369"  height="9.783" id="connector1pin"/>
     <rect width="0.866" x="5.956" y="64.082"  height="0.688" id="connector1terminal"/>
     <g >
      <polyline fill="#FFFFFF" points="6.405,1.132,6.405,20.392,9.905,22.255,2.655,26.291,9.905,30.324,2.655,34.359,9.905,38.392,2.655,42.427,6.405,44.599,6.405,63.861"  stroke="#000000" stroke-linecap="round" stroke-width="2.2284"/>
     </g>
    </g>
   </g>
  </g>
 </g>
 <g partID="67120">
  <g transform="translate(341.051,60.8923)">
   <g transform="matrix(0,1,-1,0,0,0)">
    <g  id="schematic">
     <rect width="1.893" x="5.474" y="1.089"  height="9.783" id="connector0pin"/>
     <rect width="0.866" x="5.952" y="0.406"  height="0.686" id="connector0terminal"/>
     <rect width="1.894" x="5.477" y="54.369"  height="9.783" id="connector1pin"/>
     <rect width="0.866" x="5.956" y="64.082"  height="0.688" id="connector1terminal"/>
     <g >
      <polyline fill="#FFFFFF" points="6.405,1.132,6.405,20.392,9.905,22.255,2.655,26.291,9.905,30.324,2.655,34.359,9.905,38.392,2.655,42.427,6.405,44.599,6.405,63.861"  stroke="#000000" stroke-linecap="round" stroke-width="2.2284"/>
     </g>
    </g>
   </g>
  </g>
 </g>
 <g partID="67670">
  <g transform="translate(0,62.1939)">
   <g  id="schematic">
    <text x="53.1385" y="8.69536" fill="#000000" font-family="DroidSans"  text-anchor="middle" id="label" stroke-width="0" font-size="9.66155">ND06P00103K</text>
   </g>
  </g>
 </g>
 <g partID="67790">
  <g transform="translate(211.538,90.7139)">
   <g  id="schematic">
    <text x="23.0154" y="10.3569" fill="#000000" font-family="DroidSans"  text-anchor="middle" id="label" stroke-width="0" font-size="11.5077">120k</text>
   </g>
  </g>
 </g>
 <g partID="67770">
  <g transform="translate(126.738,52.3139)">
   <g  id="schematic">
    <text x="17.2616" y="10.3569" fill="#000000" font-family="DroidSans"  text-anchor="middle" id="label" stroke-width="0" font-size="11.5077">22k</text>
   </g>
  </g>
 </g>
 <g partID="67810">
  <g transform="translate(289.938,48.3139)">
   <g  id="schematic">
    <text x="17.2616" y="10.3569" fill="#000000" font-family="DroidSans"  text-anchor="middle" id="label" stroke-width="0" font-size="11.5077">56k</text>
   </g>
  </g>
 </g>
 <g partID="67750">
  <g transform="translate(125.938,101.914)">
   <g  id="schematic">
    <text x="17.2615" y="10.3569" fill="#000000" font-family="DroidSans"  text-anchor="middle" id="label" stroke-width="0" font-size="11.5077">10k</text>
   </g>
  </g>
 </g>
 <g partID="67730">
  <g transform="translate(125.138,177.114)">
   <g  id="schematic">
    <text x="17.2615" y="10.3569" fill="#000000" font-family="DroidSans"  text-anchor="middle" id="label" stroke-width="0" font-size="11.5077">10k</text>
   </g>
  </g>
 </g>
 <g partID="67700">
  <g transform="translate(58.4,162.994)">
   <g  id="schematic">
    <text x="17.2615" y="10.3569" fill="#000000" font-family="DroidSans"  text-anchor="middle" id="label" stroke-width="0" font-size="11.5077">10k</text>
   </g>
  </g>
 </g>
 <g partID="67850">
  <g transform="translate(348.8,146.994)">
   <g  id="schematic">
    <text x="125.877" y="10.7894" fill="#000000" font-family="DroidSans"  text-anchor="middle" id="label" stroke-width="0" font-size="11.9883">MPC6231 Single Op-amp</text>
   </g>
  </g>
 </g>
 <g partID="67880">
  <g transform="translate(408,116.594)">
   <g  id="schematic">
    <text x="51.7846" y="10.3569" fill="#000000" font-family="DroidSans"  text-anchor="middle" id="label" stroke-width="0" font-size="11.5077">Vo to ADC</text>
   </g>
  </g>
 </g>
 <g partID="63950">
  <line stroke="#404040" stroke-linecap="round" y1="26.175" x1="97.9402" y2="41.064" stroke-width="2.4" x2="97.937"/>
 </g>
 <circle fill="black" cx="97.9402" cy="26.175" stroke="none" r="3.6" stroke-width="0"/>
 <g partID="64100">
  <line stroke="#404040" stroke-linecap="round" y1="138.144" x1="99.3575" y2="89.9545" stroke-width="2.4" x2="97.9402"/>
 </g>
 <circle fill="black" cx="99.3575" cy="138.144" stroke="none" r="3.6" stroke-width="0"/>
 <g partID="64280">
  <line stroke="#404040" stroke-linecap="round" y1="26.175" x1="97.9402" y2="26.175" stroke-width="2.4" x2="161.72"/>
 </g>
 <circle fill="black" cx="97.9402" cy="26.175" stroke="none" r="3.6" stroke-width="0"/>
 <circle fill="black" cx="161.72" cy="26.175" stroke="none" r="3.6" stroke-width="0"/>
 <g partID="64350">
  <line stroke="#404040" stroke-linecap="round" y1="139.458" x1="161.724" y2="153.734" stroke-width="2.4" x2="161.72"/>
 </g>
 <g partID="64420">
  <line stroke="#404040" stroke-linecap="round" y1="89.852" x1="161.724" y2="75.7813" stroke-width="2.4" x2="161.72"/>
 </g>
 <g partID="64880">
  <line stroke="#404040" stroke-linecap="round" y1="239.794" x1="99.2" y2="201.82" stroke-width="2.4" x2="99.3615"/>
 </g>
 <g partID="64710">
  <line stroke="#404040" stroke-linecap="round" y1="238.773" x1="140.46" y2="239.794" stroke-width="2.4" x2="99.2"/>
 </g>
 <circle fill="black" cx="140.46" cy="238.773" stroke="none" r="3.6" stroke-width="0"/>
 <g partID="65240">
  <line stroke="#404040" stroke-linecap="round" y1="238.994" x1="162.4" y2="217.411" stroke-width="2.4" x2="161.724"/>
 </g>
 <circle fill="black" cx="162.4" cy="238.994" stroke="none" r="3.6" stroke-width="0"/>
 <g partID="65170">
  <line stroke="#404040" stroke-linecap="round" y1="238.773" x1="140.46" y2="238.994" stroke-width="2.4" x2="162.4"/>
 </g>
 <circle fill="black" cx="140.46" cy="238.773" stroke="none" r="3.6" stroke-width="0"/>
 <g partID="65800">
  <line stroke="#404040" stroke-linecap="round" y1="153.394" x1="164.8" y2="153.394" stroke-width="2.4" x2="204.342"/>
 </g>
 <g partID="65910">
  <line stroke="#404040" stroke-linecap="round" y1="153.394" x1="204.342" y2="110.418" stroke-width="2.4" x2="204.342"/>
 </g>
 <g partID="66130">
  <line stroke="#404040" stroke-linecap="round" y1="111.201" x1="291.225" y2="110.414" stroke-width="2.4" x2="268.019"/>
 </g>
 <g partID="66570">
  <line stroke="#404040" stroke-linecap="round" y1="138.144" x1="99.3575" y2="137.624" stroke-width="2.4" x2="291.225"/>
 </g>
 <circle fill="black" cx="99.3575" cy="138.144" stroke="none" r="3.6" stroke-width="0"/>
 <g partID="66680">
  <line stroke="#404040" stroke-linecap="round" y1="26.175" x1="161.72" y2="24.5939" stroke-width="2.4" x2="360"/>
 </g>
 <circle fill="black" cx="161.72" cy="26.175" stroke="none" r="3.6" stroke-width="0"/>
 <g partID="66790">
  <line stroke="#404040" stroke-linecap="round" y1="24.5939" x1="360" y2="69.4815" stroke-width="2.4" x2="360.145"/>
 </g>
 <g partID="66900">
  <line stroke="#404040" stroke-linecap="round" y1="238.994" x1="162.4" y2="238.994" stroke-width="2.4" x2="360"/>
 </g>
 <g partID="67010">
  <line stroke="#404040" stroke-linecap="round" y1="238.994" x1="360" y2="234.521" stroke-width="2.4" x2="360.145"/>
 </g>
 <g partID="67260">
  <line stroke="#404040" stroke-linecap="round" y1="67.2814" x1="271.2" y2="67.2814" stroke-width="2.4" x2="276.625"/>
 </g>
 <g partID="67150">
  <line stroke="#404040" stroke-linecap="round" y1="110.194" x1="271.2" y2="67.2814" stroke-width="2.4" x2="271.2"/>
 </g>
 <g partID="67600">
  <line stroke="#404040" stroke-linecap="round" y1="66.9939" x1="428" y2="67.2774" stroke-width="2.4" x2="340.302"/>
 </g>
 <g partID="67530">
  <line stroke="#404040" stroke-linecap="round" y1="124.761" x1="428.145" y2="66.9939" stroke-width="2.4" x2="428"/>
 </g>
 <g partID="67830">
  <g transform="translate(88,290.594)">
   <g>
    <rect width="179.2" x="1.2" y="1.2" fill="#fbf7ab" height="42.4" stroke="#ffd50e" stroke-width="2.4"/>
    <g font-family="Droid Sans" fill="#000000" text-anchor="left" stroke="none" font-size="9.6">
     <text x="10.4" y="20" fill="#000000">Op-amp can run from 3.3V supply rail </text>
    </g>
    <g font-family="Droid Sans" fill="#000000" text-anchor="left" stroke="none" font-size="9.6">
     <text x="10.4" y="32" fill="#000000">as it has very good rail-rail operation.</text>
    </g>
   </g>
  </g>
 </g>
 <g partID="67910">
  <g transform="translate(294,290.994)">
   <g>
    <rect width="199.2" x="1.2" y="1.2" fill="#fbf7ab" height="54.4" stroke="#ffd50e" stroke-width="2.4"/>
    <g font-family="Droid Sans" fill="#000000" text-anchor="left" stroke="none" font-size="9.6">
     <text x="10.4" y="20" fill="#000000">Gain setting resistors could be knocked up </text>
    </g>
    <g font-family="Droid Sans" fill="#000000" text-anchor="left" stroke="none" font-size="9.6">
     <text x="10.4" y="32" fill="#000000">a decade if current draw from ref. divider </text>
    </g>
    <g font-family="Droid Sans" fill="#000000" text-anchor="left" stroke="none" font-size="9.6">
     <text x="10.4" y="44" fill="#000000">proves too high.</text>
    </g>
   </g>
  </g>
 </g>
</svg>
